<?xml version="1.0" encoding="UTF-8" standalone="no"?>
<!-- Created with Inkscape (http://www.inkscape.org/) -->

<svg
   xmlns:dc="http://purl.org/dc/elements/1.1/"
   xmlns:cc="http://creativecommons.org/ns#"
   xmlns:rdf="http://www.w3.org/1999/02/22-rdf-syntax-ns#"
   xmlns:svg="http://www.w3.org/2000/svg"
   xmlns="http://www.w3.org/2000/svg"
   xmlns:sodipodi="http://sodipodi.sourceforge.net/DTD/sodipodi-0.dtd"
   xmlns:inkscape="http://www.inkscape.org/namespaces/inkscape"
   version="1.1"
   id="svg2"
   width="850"
   height="428"
   viewBox="0 0 850 428"
   sodipodi:docname="periodo-fabri-perot.svg"
   inkscape:version="0.92.1 r15371">
  <metadata
     id="metadata8">
    <rdf:RDF>
      <cc:Work
         rdf:about="">
        <dc:format>image/svg+xml</dc:format>
        <dc:type
           rdf:resource="http://purl.org/dc/dcmitype/StillImage" />
        <dc:title />
      </cc:Work>
    </rdf:RDF>
  </metadata>
  <defs
     id="defs6" />
  <sodipodi:namedview
     pagecolor="#ffffff"
     bordercolor="#666666"
     borderopacity="1"
     objecttolerance="10"
     gridtolerance="10"
     guidetolerance="10"
     inkscape:pageopacity="0"
     inkscape:pageshadow="2"
     inkscape:window-width="1920"
     inkscape:window-height="1001"
     id="namedview4"
     showgrid="false"
     inkscape:zoom="8.5835293"
     inkscape:cx="25.359844"
     inkscape:cy="356.04435"
     inkscape:window-x="-9"
     inkscape:window-y="-9"
     inkscape:window-maximized="1"
     inkscape:current-layer="svg2" />
  <path
     id="path4521"
     style="fill:#000000"
     d="M 72.695312,0.5546875 C 72.30769,0.72636781 70.78588,3.8547469 69.166016,7.8398438 64.152652,20.173444 64.320943,19.464774 66.714844,18.183594 c 1.147239,-0.61398 2.566186,-1.115235 3.152344,-1.115235 0.750471,0 1.064453,54.579262 1.064453,184.500001 v 184.5 H 438.4668 c 363.06139,0 367.52259,0.0229 366.5,1.93359 -0.56935,1.06384 -1.03516,2.452 -1.03516,3.08399 0,0.63199 0.36652,0.99781 0.81445,0.81445 12.06693,-4.93887 17.06526,-7.3442 16.44922,-7.91797 -1.38975,-1.2944 -16.35734,-7.15437 -16.89648,-6.61523 -0.29108,0.29107 -0.0418,1.43788 0.55273,2.54883 0.59456,1.11095 1.08008,2.27477 1.08008,2.58593 0,0.92213 -98.70024,0.58416 -121.5,-0.41601 -36.76409,-1.61275 -57.5735,-5.1226 -69.79687,-11.77539 -6.65967,-3.62465 -15.92939,-13.8368 -19.66407,-21.66211 -11.53684,-24.17328 -17.00753,-61.91864 -23.99414,-165.58008 -5.53499,-82.12358 -6.30795,-88.890576 -10.17578,-88.984376 -1.5906,-0.03858 -3.06175,11.324316 -5.33203,41.193356 -1.34984,17.75938 -2.71725,36.79102 -3.03906,42.29102 -3.449,58.94644 -8.91304,112.57413 -14.00391,137.43164 -9.41245,45.95884 -22.67815,59.1076 -65.125,64.54883 -13.29853,1.70473 -49.00939,3.47515 -70.61914,3.50195 l -13.75,0.0176 v -0.11524 c -0.0671,0.004 -0.13408,0.009 -0.20117,0.0137 -0.0837,0.006 -0.16645,0.0136 -0.25,0.0215 -0.10671,0.01 -0.21328,0.0167 -0.32031,0.0215 -0.11021,0.006 -0.22162,0.01 -0.33204,0.01 -0.11205,0.001 -0.22402,0.001 -0.33593,-0.006 -0.10497,-0.005 -0.20971,-0.007 -0.31446,-0.0156 -0.13636,-0.0128 -0.27172,-0.0304 -0.40625,-0.0566 -0.11697,-0.024 -0.23483,-0.0489 -0.3496,-0.082 -0.11708,-0.0343 -0.23224,-0.0702 -0.34571,-0.11524 -0.1232,-0.049 -0.24534,-0.10133 -0.36133,-0.16602 -0.009,-0.005 -0.14744,-0.0849 -0.11718,-0.0703 -0.0541,-0.0137 -0.10727,-0.0277 -0.16016,-0.0449 l -0.006,0.10547 -11,0.30469 c -16.09088,0.44626 -60.12065,-1.53484 -74,-3.33008 -43.51141,-5.62806 -56.52759,-19.33627 -65.9668,-69.47461 -4.40575,-23.40204 -9.73521,-76.08594 -12.51367,-123.68555 -1.94105,-33.25351 -6.00979,-83.39146 -7.12695,-87.828122 -1.15568,-4.58963 -1.54638,-5.001494 -3.5293,-3.720704 -1.83785,1.18709 -4.19492,23.643506 -6.84765,65.234376 -10.06524,157.80819 -17.228,192.1314 -43.625,209.07031 -11.1018,7.12401 -34.41242,11.46549 -68.537114,12.76367 -9.637504,0.36664 -17.709104,0.47722 -17.9375,0.24805 -0.228396,-0.22916 -0.416015,-82.46666 -0.416015,-182.75 0,-128.387161 0.315981,-182.332031 1.066406,-182.332031 0.586158,0 1.974989,0.485518 3.085937,1.080079 1.110948,0.59456 2.164738,0.932057 2.341797,0.75 0.329985,-0.339311 -6.857067,-17.5269911 -7.667969,-18.33789112 -0.01546,-0.015455 -0.03666,-0.0173099 -0.0625,-0.005859 z M 343.93164,33.990234 v 13.539063 c 0,11.36794 0.24053,13.539062 1.5,13.539062 1.16533,0 1.5,-1.328865 1.5,-5.953125 v -5.951172 l 6.17188,-0.298828 c 8.56726,-0.41334 9.03695,-2.600197 0.64453,-2.998046 l -6.31641,-0.298829 v -4 -4 L 354.75,37.273438 c 5.1604,-0.208152 7.20125,-0.650442 6.91992,-1.5 -0.26,-0.78514 -3.41887,-1.305851 -9.06836,-1.494141 z m 30.70117,0.05469 c -2.3571,0.09025 -4.65336,0.885765 -6.24609,2.478516 -4.50946,4.509458 -2.60473,9.310587 4.60937,11.617187 7.85824,2.51256 8.93555,3.158689 8.93555,5.349609 0,3.17716 -1.89702,4.578125 -6.19922,4.578125 -3.68482,0 -7.80078,-2.63794 -7.80078,-5 0,-0.55 -0.675,-1 -1.5,-1 -2.41568,0 -1.73053,2.921812 1.42383,6.076172 2.39128,2.39129 3.76642,2.923828 7.56445,2.923828 5.81526,0 7.89647,-1.09744 9.52344,-5.02539 1.13533,-2.74092 1.05233,-3.415373 -0.70703,-5.789063 -1.21171,-1.63481 -4.05116,-3.35826 -7.25391,-4.402344 -7.94242,-2.589179 -9.43737,-4.25404 -6.47851,-7.21289 2.41006,-2.41007 7.16128,-1.960533 9.83984,0.929687 1.27431,1.375 2.82861,2.5 3.45313,2.5 1.40762,0 1.41006,-0.30444 0.0254,-3.34375 -1.30326,-2.86034 -4.70781,-4.514876 -8.17774,-4.675781 -0.33735,-0.01564 -0.67499,-0.01692 -1.01172,-0.0039 z m 25.09375,0.105469 c -1.13908,-0.0082 -2.37385,0.02829 -3.71094,0.105468 l -5.41601,0.3125 0.12695,8.5 c 0.0706,4.675 0.14697,10.6375 0.16797,13.25 0.0284,3.53859 0.41966,4.75 1.53711,4.75 1.16667,0 1.5,-1.33334 1.5,-6 v -6 h 3.32617 c 3.60884,0 5.7707,1.85928 9.59375,8.25 1.34637,2.25062 3.01072,3.75 4.16211,3.75 2.69101,0 2.4472,-0.792314 -2.08594,-6.771484 -4.34999,-5.7376 -4.57288,-6.228516 -2.82421,-6.228516 2.37052,0 4.82812,-3.351984 4.82812,-6.583984 0,-5.076146 -3.2315,-7.276818 -11.20508,-7.333984 z m -5.79492,2.917968 h 5.3457 c 7.33103,0 10.83665,3.675075 7.08399,7.427735 -1.04261,1.04261 -3.39827,1.572265 -7,1.572265 h -5.42969 v -4.5 z m 157.66797,34.783203 c -0.47373,0.03687 -0.4026,0.474909 -0.15039,1.269532 0.61062,1.92386 -1.33303,1.947265 -164.01758,1.947265 -162.68455,0 -164.62624,-0.02338 -164.01562,-1.947265 0.57428,-1.80939 0.17855,-1.758471 -5.58985,0.730468 l -6.20703,2.679688 5.90625,2.71875 c 3.24852,1.49576 6.05004,2.742431 6.22461,2.769531 0.17456,0.02708 0.0308,-0.851172 -0.31836,-1.951172 -0.63302,-1.994 -0.1797,-2 164,-2 163.2993,0 164.62946,0.01629 164.00977,1.96875 -0.61129,1.92602 -0.50945,1.922452 4.68359,-0.167968 2.91905,-1.17504 5.65559,-2.433402 6.08203,-2.794922 0.42644,-0.36153 -1.95904,-1.837407 -5.30078,-3.279297 -3.1883,-1.375684 -4.69756,-1.990758 -5.30664,-1.94336 z M 212.41992,101.32617 c 0.21841,0.14662 0.58377,1.35882 0.87305,2.94531 0.62666,3.43683 5.08407,62.17167 6.16992,81.29688 0.3435,6.05 1.95301,27.2 3.57617,47 9.12596,111.32177 19.03269,136.04042 58.53321,146.06055 5.28931,1.34174 11.10766,2.43945 12.92968,2.43945 1.82201,0 3.58977,0.45 3.92969,1 0.40832,0.66068 -13.82338,1 -41.94141,1 h -42.55859 v -5 c 0,-3.77778 -0.36667,-5 -1.5,-5 -1.13333,0 -1.5,1.22222 -1.5,5 v 5 h -42.05859 c -27.7847,0 -41.84969,-0.33939 -41.44141,-1 0.33992,-0.55 1.82855,-1.00381 3.30859,-1.00781 5.23477,-0.0136 19.74211,-4.11708 27.16797,-7.68555 17.14721,-8.24004 26.75968,-24.40263 33.4668,-56.26562 4.55392,-21.63403 9.15559,-62.3854 12.0293,-106.54102 0.82328,-12.65 1.73632,-25.475 2.02929,-28.5 0.29298,-3.025 1.4255,-19.09853 2.51563,-35.71875 1.79241,-27.32718 3.42206,-44.05293 4.38672,-45.01758 0.0245,-0.0245 0.0528,-0.0255 0.084,-0.006 z m 349.05469,0.37305 c 1.285,0.33946 2.80868,18.65251 6.48047,73.36914 6.55716,97.71453 11.12859,135.33262 19.62695,161.5 5.80134,17.86296 15.12735,30.33058 27.27539,36.46289 6.2909,3.17563 23.30383,8.03711 28.125,8.03711 1.55733,0 3.1093,0.45 3.44922,1 0.40828,0.66061 -13.65671,1 -41.44141,1 h -42.05859 v -5 c 0,-3.77778 -0.36667,-5 -1.5,-5 -1.13333,0 -1.5,1.22222 -1.5,5 v 5 h -42.05859 c -27.7847,0 -41.84969,-0.33939 -41.44141,-1 0.33992,-0.55 2.05355,-1.00156 3.80859,-1.00195 4.89263,-0.001 21.41696,-4.83049 28.14454,-8.22657 7.21373,-3.64148 15.95274,-12.28443 20.41406,-20.18945 12.19263,-21.60415 19.74425,-72.31734 26.14648,-175.58203 1.64539,-26.5392 4.94089,-69.0619 5.6543,-72.95898 0.29464,-1.60954 0.57846,-2.4885 0.875,-2.41016 z m -293.54297,97.36914 v 13.5 c 0,11.33333 0.24074,13.5 1.5,13.5 1.16667,0 1.5,-1.33333 1.5,-6 v -6 h 6 c 4.5749,0 6,-0.34549 6,-1.45117 0,-1.06389 -1.53138,-1.52996 -5.75,-1.75 l -5.75,-0.29883 v -4 -4 l 6.75,-0.29688 c 5.10354,-0.22356 6.75,-0.65043 6.75,-1.75 0,-1.15835 -1.7298,-1.45312 -8.5,-1.45312 z m 21.33203,0 c -1.86403,0 -1.72227,1.23927 1.66602,14.64258 1.64852,6.52117 2.999,11.96992 3,12.10742 0.001,0.1375 0.85163,0.25 1.88867,0.25 1.5677,0 2.34432,-1.85417 4.61328,-11 1.50093,-6.05 3.01568,-10.99814 3.36524,-10.99414 0.34953,0.004 1.72795,4.49335 3.0625,9.97656 1.33456,5.48322 2.75099,10.49561 3.14843,11.13867 1.77588,2.87345 3.71699,-0.5901 6.73047,-12.00781 3.65269,-13.83962 3.68823,-14.11328 1.77734,-14.11328 -0.96631,0 -2.095,2.94058 -3.55078,9.25 -3.247,14.07262 -3.09847,13.8884 -5.05468,6.19141 -3.84301,-15.12082 -3.96649,-15.44141 -5.98828,-15.44141 -1.9779,0 -3.13143,2.93689 -6.08594,15.5 -1.23537,5.25304 -2.9043,8.20402 -2.9043,5.13672 0,-4.52626 -4.42488,-20.63672 -5.66797,-20.63672 z m 36.16797,0 c -1.25926,0 -1.5,2.16667 -1.5,13.5 0,11.13619 0.25514,13.5 1.45313,13.5 1.08305,0 1.52798,-1.58905 1.75,-6.25 l 0.29687,-6.25 h 6.5 6.5 l 0.29883,6.25 c 0.22202,4.66095 0.66695,6.25 1.75,6.25 1.19799,0 1.45117,-2.36381 1.45117,-13.5 0,-11.33333 -0.24074,-13.5 -1.5,-13.5 -1.15152,0 -1.5,1.27778 -1.5,5.5 v 5.5 h -7 -7 v -5.5 c 0,-4.22222 -0.34848,-5.5 -1.5,-5.5 z m 26.82813,0 c -2.32138,0 -2.32813,0.0337 -2.32813,13.5 0,11.33333 0.24074,13.5 1.5,13.5 1.23542,0 1.51508,-1.89618 1.58008,-10.75 l 0.0781,-10.75 3.57618,10.79297 c 4.58333,13.83336 5.55916,13.8044 10.26562,-0.30274 l 3.5,-10.49023 0.28516,10.75 c 0.22838,8.64958 0.5703,10.75 1.75,10.75 1.21619,0 1.46484,-2.31432 1.46484,-13.57031 0,-13.3466 -0.0343,-13.5643 -2.16406,-13.25 -1.78964,0.26411 -2.78729,2.18383 -5.75,11.06054 -1.97156,5.90709 -3.81094,10.73738 -4.08594,10.73438 -0.275,-0.003 -2.03943,-4.94876 -3.92187,-10.99024 -3.06989,-9.85248 -3.66246,-10.98437 -5.75,-10.98437 z m -111.08594,35.60547 c -0.66946,0.0696 -2.10758,0.68691 -4.86914,1.9082 -7.13371,3.15487 -7.1937,3.2163 -4.26172,4.36914 1.31378,0.51657 3.96367,1.63599 5.88867,2.48828 1.925,0.85229 3.57025,1.56835 3.65625,1.58985 0.086,0.0215 -0.0776,-0.86094 -0.36523,-1.96094 -0.5041,-1.9277 -0.0325,-2 13.09179,-2 11.437,0 13.61719,-0.24011 13.61719,-1.5 0,-1.25963 -2.17317,-1.5 -13.56641,-1.5 -13.15709,0 -13.54947,-0.0606 -12.92773,-2.01953 0.30664,-0.96614 0.40579,-1.44458 -0.26367,-1.375 z m -59.55664,0.21289 c -0.47588,0.0297 -0.41288,0.46019 -0.16407,1.24414 0.58735,1.85049 0.0111,1.9375 -12.95312,1.9375 -11.39324,0 -13.56836,0.24037 -13.56836,1.5 0,1.25963 2.17512,1.5 13.56836,1.5 13.21816,0 13.54927,0.0516 12.91602,2.04687 -0.62442,1.96737 -0.51495,1.99277 2.7539,0.62696 1.8715,-0.78197 4.60244,-2.05029 6.06836,-2.81836 l 2.66406,-1.39649 -6.03125,-2.66601 c -3.13983,-1.38772 -4.64206,-2.01281 -5.2539,-1.97461 z" />
  <text
     xml:space="preserve"
     style="font-style:normal;font-variant:normal;font-weight:normal;font-stretch:normal;font-size:32px;line-height:1.25;font-family:'Latin Modern Roman';-inkscape-font-specification:'Latin Modern Roman, ';letter-spacing:0px;word-spacing:0px;fill:#000000;fill-opacity:1;stroke:none;"
     x="17.134933"
     y="29.942301"
     id="text4616"><tspan
       sodipodi:role="line"
       id="tspan4614"
       x="17.134933"
       y="44.838303" /></text>
  <text
     xml:space="preserve"
     style="font-style:normal;font-variant:normal;font-weight:normal;font-stretch:normal;font-size:16px;line-height:1.25;font-family:'Latin Modern Roman';-inkscape-font-specification:'Latin Modern Roman, ';letter-spacing:0px;word-spacing:0px;fill:#000000;fill-opacity:1;stroke:none"
     x="30.379539"
     y="70.430191"
     id="text4620"><tspan
       sodipodi:role="line"
       id="tspan4618"
       x="30.379539"
       y="70.430191"
       style="font-style:normal;font-variant:normal;font-weight:bold;font-stretch:normal;font-size:42.66666794px;font-family:'Bodoni MT';-inkscape-font-specification:'Bodoni MT Bold'">$\mathbf{T}$</tspan></text>
  <text
     xml:space="preserve"
     style="font-style:normal;font-variant:normal;font-weight:normal;font-stretch:normal;font-size:16px;line-height:1.25;font-family:'Latin Modern Roman';-inkscape-font-specification:'Latin Modern Roman, ';letter-spacing:0px;word-spacing:0px;fill:#000000;fill-opacity:1;stroke:none"
     x="754.48712"
     y="422.00763"
     id="text4488"><tspan
       sodipodi:role="line"
       id="tspan4486"
       x="754.48712"
       y="422.00763">$\delta$</tspan></text>
</svg>
